<svg width="830" height="133" viewBox="0 0 830 133" fill="none" xmlns="http://www.w3.org/2000/svg">
<path fill-rule="evenodd" clip-rule="evenodd" d="M105.12 35.0698C105.76 36.3898 106.3 37.9498 106.59 40.0098C108.64 38.3698 110.17 36.2598 110.41 35.1498C110.87 33.1698 110.48 31.5498 109.93 30.2898C113.31 25.4698 115.4 18.9598 112.02 13.0898C105.33 14.1198 101.55 19.8198 99.9002 25.4798C98.5802 25.8398 97.0702 26.5398 95.8102 28.1398C95.1002 29.0298 94.4202 31.5498 94.4102 34.1698C96.2102 33.0998 97.7502 32.5498 99.1902 32.2298C99.1858 32.2802 99.1806 32.3347 99.175 32.3927C99.1043 33.1302 98.9794 34.4327 99.8602 34.8498L102.66 36.1898C103.543 36.6081 104.478 35.6958 105.007 35.1797C105.047 35.1405 105.085 35.1037 105.12 35.0698ZM109.99 23.0998C110.59 21.8598 110.07 20.3698 108.83 19.7798C107.59 19.1798 106.11 19.7098 105.51 20.9398C104.91 22.1798 105.43 23.6698 106.67 24.2598C107.91 24.8598 109.4 24.3398 109.99 23.0998Z" fill="#D0D0D0"/>
<path d="M80.6012 83.9785C87.7612 75.5485 97.3512 60.8185 103.911 49.1385C109.091 39.9285 96.0713 31.4385 89.8013 39.9285C89.7713 39.9684 89.7438 40.0059 89.7164 40.0433C89.6888 40.0809 89.6613 40.1184 89.6312 40.1585C88.4859 41.7481 87.6104 43.5304 86.7372 45.3081C86.3524 46.0914 85.968 46.8738 85.5612 47.6385C81.8164 54.66 80.9514 56.3739 77.0122 64.1784C76.1547 65.8773 75.1515 67.8648 73.9413 70.2585C72.8313 72.4485 69.6913 78.5285 65.8913 84.7285C65.7559 84.9481 65.6133 85.1836 65.4626 85.4324C64.8446 86.4524 64.0898 87.6982 63.1413 89.0085C60.7612 92.3185 57.2012 96.0485 51.7412 97.5585C50.9112 97.7785 50.0913 97.9285 49.2713 98.0085C40.7113 98.8685 33.1813 93.8985 30.9412 83.1385C30.2812 79.9585 30.2613 75.9485 31.2313 71.3885C29.7713 75.4085 29.4513 77.8685 29.2812 81.3285C29.2812 90.1385 33.7013 96.4585 39.5413 100.739C44.0913 103.599 48.3012 104.569 53.7412 103.949C64.7751 102.681 72.2773 93.8148 79.5263 85.2475C79.8851 84.8234 80.2433 84.4001 80.6012 83.9785Z" fill="#D0D0D0"/>
<path d="M13.9123 24.4501L47.2723 93.5401C51.2423 93.0801 57.4723 90.8701 60.6423 83.6901L27.9123 17.0801C26.5523 14.5801 23.9423 13.0101 21.0923 13.0001C21.0123 13.0001 20.9423 13.0001 20.8623 13.0001C14.9623 12.9701 11.1623 19.2401 13.9123 24.4501Z" fill="#0E94F2"/>
<path d="M87.0109 82.6484C78.1209 93.4884 69.2209 105.958 54.4609 107.818C55.9609 110.758 57.4409 113.658 58.9409 116.598C61.2609 121.158 67.7809 121.148 70.0909 116.588C75.9109 105.148 81.3009 93.8984 87.0109 82.6484Z" fill="#0E94F2"/>
<path d="M522.203 43.1677C522.203 47.7627 518.477 51.4877 513.882 51.4877C509.287 51.4877 505.562 47.7627 505.562 43.1677C505.562 38.5726 509.287 34.8477 513.882 34.8477C518.477 34.8477 522.203 38.5726 522.203 43.1677Z" fill="#D0D0D0"/>
<path d="M520.772 61.2494V69.918H527.29C530.93 69.918 533.89 72.868 533.89 76.518C533.88 80.168 530.93 83.118 527.29 83.118H520.772V112.309C520.772 116.119 517.682 119.199 513.882 119.199C510.072 119.209 506.992 116.119 506.992 112.309V61.2494C506.992 57.4394 510.082 54.3594 513.882 54.3594C517.692 54.3594 520.772 57.4494 520.772 61.2494Z" fill="#D0D0D0"/>
<path d="M552.422 83.118H545.901C542.251 83.118 539.301 80.168 539.301 76.518C539.301 72.868 542.261 69.918 545.901 69.918H552.422V61.2494C552.422 57.4494 555.502 54.3594 559.312 54.3594C563.112 54.3594 566.202 57.4394 566.202 61.2494V112.309C566.202 116.119 563.112 119.209 559.312 119.199C555.512 119.199 552.422 116.119 552.422 112.309V83.118Z" fill="#D0D0D0"/>
<path d="M559.3 51.4877C563.895 51.4877 567.62 47.7627 567.62 43.1677C567.62 38.5726 563.895 34.8477 559.3 34.8477C554.705 34.8477 550.98 38.5726 550.98 43.1677C550.98 47.7627 554.705 51.4877 559.3 51.4877Z" fill="#D0D0D0"/>
<path d="M152.342 109.417L148.342 98.9066H114.292L110.292 109.647C108.732 113.837 107.402 116.667 106.292 118.127C105.182 119.597 103.382 120.327 100.862 120.327C98.7322 120.327 96.8422 119.547 95.2022 117.987C93.5622 116.427 92.7422 114.657 92.7422 112.677C92.7422 111.537 92.9322 110.357 93.3122 109.137C93.6922 107.917 94.3222 106.227 95.2022 104.057L116.622 49.6666C117.232 48.1066 117.962 46.2266 118.822 44.0366C119.682 41.8466 120.592 40.0266 121.562 38.5766C122.532 37.1266 123.812 35.9566 125.392 35.0666C126.972 34.1766 128.922 33.7266 131.252 33.7266C133.612 33.7266 135.582 34.1766 137.162 35.0666C138.742 35.9666 140.022 37.1166 140.992 38.5266C141.962 39.9366 142.782 41.4466 143.452 43.0666C144.122 44.6866 144.962 46.8466 145.992 49.5466L167.872 103.587C169.582 107.697 170.442 110.687 170.442 112.557C170.442 114.497 169.632 116.277 168.012 117.897C166.392 119.517 164.442 120.327 162.152 120.327C160.822 120.327 159.672 120.087 158.722 119.617C157.772 119.137 156.972 118.497 156.322 117.677C155.672 116.857 154.982 115.597 154.242 113.907C153.512 112.207 152.872 110.717 152.342 109.417ZM118.752 86.1666H143.772L131.152 51.6066L118.752 86.1666Z" fill="#0E94F2"/>
<path d="M241.863 93.7666C241.863 98.8366 240.562 103.387 237.952 107.417C235.342 111.457 231.523 114.617 226.493 116.897C221.463 119.177 215.503 120.327 208.613 120.327C200.353 120.327 193.533 118.767 188.163 115.647C184.353 113.397 181.263 110.397 178.883 106.647C176.503 102.897 175.312 99.2466 175.312 95.7066C175.312 93.6466 176.022 91.8866 177.452 90.4266C178.882 88.9566 180.703 88.2266 182.913 88.2266C184.703 88.2266 186.213 88.7966 187.452 89.9366C188.692 91.0766 189.743 92.7766 190.622 95.0166C191.692 97.6866 192.843 99.9066 194.083 101.697C195.323 103.487 197.062 104.967 199.312 106.127C201.562 107.287 204.512 107.867 208.173 107.867C213.202 107.867 217.283 106.697 220.423 104.357C223.562 102.017 225.133 99.0966 225.133 95.5866C225.133 92.8066 224.283 90.5466 222.592 88.8166C220.893 87.0866 218.713 85.7566 216.023 84.8466C213.333 83.9366 209.743 82.9566 205.253 81.9366C199.233 80.5266 194.202 78.8766 190.143 76.9966C186.083 75.1166 182.873 72.5366 180.493 69.2866C178.113 66.0266 176.923 61.9866 176.923 57.1466C176.923 52.5366 178.183 48.4466 180.693 44.8666C183.203 41.2866 186.843 38.5366 191.603 36.6166C196.363 34.6966 201.962 33.7266 208.402 33.7266C213.542 33.7266 217.993 34.3666 221.743 35.6366C225.493 36.9166 228.603 38.6066 231.083 40.7166C233.562 42.8266 235.372 45.0466 236.512 47.3766C237.652 49.6966 238.223 51.9666 238.223 54.1766C238.223 56.1966 237.512 58.0166 236.083 59.6366C234.653 61.2566 232.873 62.0666 230.743 62.0666C228.803 62.0666 227.322 61.5766 226.312 60.6066C225.303 59.6366 224.202 58.0466 223.023 55.8366C221.503 52.6766 219.672 50.2066 217.542 48.4366C215.412 46.6666 211.982 45.7766 207.262 45.7766C202.882 45.7766 199.353 46.7366 196.663 48.6566C193.983 50.5766 192.633 52.8966 192.633 55.5966C192.633 57.2766 193.092 58.7166 194.003 59.9366C194.913 61.1566 196.173 62.2066 197.773 63.0766C199.373 63.9566 200.993 64.6366 202.633 65.1366C204.273 65.6366 206.973 66.3566 210.743 67.3066C215.463 68.4066 219.742 69.6266 223.572 70.9666C227.402 72.2966 230.652 73.9166 233.342 75.8266C236.033 77.7266 238.122 80.1366 239.622 83.0566C241.113 85.9666 241.863 89.5366 241.863 93.7666Z" fill="#0E94F2"/>
<path d="M251.691 84.2766V44.0066C251.691 40.5766 252.461 38.0066 254.001 36.2966C255.541 34.5866 257.571 33.7266 260.081 33.7266C262.711 33.7266 264.791 34.5866 266.341 36.2966C267.881 38.0066 268.651 40.5766 268.651 44.0066V85.1966C268.651 89.8766 269.171 93.7966 270.221 96.9366C271.271 100.077 273.121 102.517 275.791 104.247C278.461 105.977 282.191 106.847 286.991 106.847C293.621 106.847 298.301 105.087 301.041 101.567C303.781 98.0466 305.151 92.7066 305.151 85.5466V44.0066C305.151 40.5366 305.911 37.9566 307.441 36.2666C308.961 34.5766 311.001 33.7266 313.551 33.7266C316.101 33.7266 318.171 34.5766 319.751 36.2666C321.331 37.9566 322.121 40.5466 322.121 44.0066V84.2866C322.121 90.8366 321.481 96.3066 320.211 100.687C318.931 105.067 316.521 108.917 312.981 112.227C309.931 115.047 306.391 117.107 302.351 118.397C298.311 119.687 293.591 120.337 288.181 120.337C281.741 120.337 276.201 119.637 271.561 118.257C266.911 116.867 263.121 114.717 260.191 111.797C257.261 108.887 255.111 105.147 253.731 100.597C252.381 96.0366 251.691 90.6066 251.691 84.2766Z" fill="#0E94F2"/>
<path d="M357.9 43.8888L390.52 93.2488V43.4388C390.52 40.1988 391.21 37.7787 392.6 36.1587C393.99 34.5387 395.87 33.7288 398.23 33.7288C400.67 33.7288 402.59 34.5387 404 36.1587C405.41 37.7787 406.11 40.2088 406.11 43.4388V109.309C406.11 116.659 403.06 120.339 396.97 120.339C395.45 120.339 394.07 120.119 392.86 119.679C391.64 119.239 390.5 118.549 389.43 117.589C388.36 116.639 387.37 115.519 386.46 114.249C385.55 112.969 384.63 111.669 383.72 110.339L351.9 61.5488V110.619C351.9 113.819 351.16 116.239 349.67 117.869C348.18 119.509 346.28 120.329 343.96 120.329C341.56 120.329 339.64 119.499 338.19 117.849C336.74 116.189 336.02 113.779 336.02 110.619V46.0088C336.02 43.2688 336.32 41.1188 336.93 39.5488C337.65 37.8388 338.85 36.4388 340.53 35.3488C342.2 34.2588 344.01 33.7188 345.96 33.7188C347.48 33.7188 348.79 33.9688 349.87 34.4588C350.96 34.9588 351.91 35.6188 352.73 36.4588C353.55 37.2988 354.39 38.3787 355.24 39.7188C356.1 41.0588 356.99 42.4488 357.9 43.8888Z" fill="#0E94F2"/>
<path d="M430.521 35.1484H452.631C458.381 35.1484 463.311 35.6784 467.431 36.7484C471.541 37.8184 475.281 39.8184 478.631 42.7484C487.351 50.2184 491.711 61.5584 491.711 76.7984C491.711 81.8284 491.271 86.4184 490.401 90.5684C489.521 94.7184 488.171 98.4584 486.341 101.798C484.511 105.128 482.171 108.108 479.311 110.738C477.061 112.758 474.611 114.378 471.941 115.598C469.271 116.818 466.411 117.678 463.341 118.168C460.271 118.668 456.821 118.908 452.971 118.908H430.861C427.781 118.908 425.451 118.438 423.891 117.508C422.331 116.578 421.311 115.258 420.831 113.568C420.351 111.878 420.121 109.678 420.121 106.968V45.5484C420.121 41.8884 420.941 39.2484 422.581 37.6084C424.211 35.9684 426.861 35.1484 430.521 35.1484ZM437.091 105.418H449.941C452.761 105.418 454.971 105.338 456.571 105.188C458.171 105.038 459.831 104.658 461.541 104.048C463.251 103.438 464.741 102.578 466.001 101.478C471.671 96.6784 474.511 88.4184 474.511 76.6884C474.511 68.4284 473.261 62.2384 470.771 58.1184C468.271 54.0084 465.201 51.3884 461.541 50.2584C457.881 49.1384 453.461 48.5684 448.291 48.5684H437.091V105.418Z" fill="#0E94F2"/>
<path d="M639.729 109.417L635.729 98.9066H601.679L597.679 109.647C596.119 113.837 594.789 116.667 593.679 118.127C592.569 119.597 590.769 120.327 588.249 120.327C586.119 120.327 584.229 119.547 582.589 117.987C580.949 116.427 580.129 114.657 580.129 112.677C580.129 111.537 580.319 110.357 580.699 109.137C581.079 107.917 581.709 106.227 582.589 104.057L604.009 49.6666C604.619 48.1066 605.349 46.2266 606.209 44.0366C607.069 41.8466 607.979 40.0266 608.949 38.5766C609.919 37.1266 611.199 35.9566 612.779 35.0666C614.359 34.1766 616.309 33.7266 618.639 33.7266C620.999 33.7266 622.969 34.1766 624.549 35.0666C626.129 35.9666 627.409 37.1166 628.379 38.5266C629.349 39.9366 630.169 41.4466 630.839 43.0666C631.509 44.6866 632.349 46.8466 633.379 49.5466L655.259 103.587C656.969 107.697 657.829 110.687 657.829 112.557C657.829 114.497 657.019 116.277 655.399 117.897C653.779 119.517 651.829 120.327 649.539 120.327C648.209 120.327 647.059 120.087 646.109 119.617C645.159 119.137 644.359 118.497 643.709 117.677C643.059 116.857 642.369 115.597 641.629 113.907C640.899 112.207 640.269 110.717 639.729 109.417ZM606.139 86.1666H631.159L618.539 51.6066L606.139 86.1666Z" fill="#0E94F2"/>
<path d="M688.41 83.0784H682.47V109.988C682.47 113.528 681.69 116.138 680.13 117.818C678.57 119.498 676.53 120.328 674.02 120.328C671.31 120.328 669.22 119.448 667.73 117.698C666.25 115.948 665.5 113.378 665.5 109.988V45.5484C665.5 41.8884 666.32 39.2484 667.96 37.6084C669.6 35.9684 672.25 35.1484 675.9 35.1484H703.49C707.3 35.1484 710.55 35.3084 713.26 35.6384C715.96 35.9584 718.4 36.6184 720.57 37.6084C723.2 38.7084 725.52 40.2984 727.54 42.3484C729.56 44.4084 731.09 46.7984 732.14 49.5184C733.19 52.2384 733.71 55.1284 733.71 58.1684C733.71 64.4184 731.95 69.4084 728.43 73.1384C724.91 76.8684 719.56 79.5184 712.41 81.0784C715.42 82.6784 718.29 85.0384 721.04 88.1584C723.79 91.2784 726.23 94.6084 728.38 98.1284C730.53 101.648 732.21 104.828 733.41 107.668C734.61 110.508 735.21 112.458 735.21 113.528C735.21 114.638 734.86 115.728 734.15 116.818C733.44 117.898 732.48 118.758 731.26 119.388C730.04 120.018 728.63 120.328 727.03 120.328C725.12 120.328 723.53 119.878 722.23 118.988C720.93 118.098 719.82 116.958 718.89 115.588C717.96 114.218 716.69 112.198 715.09 109.528L708.29 98.2184C705.85 94.0684 703.67 90.9084 701.75 88.7384C699.83 86.5684 697.87 85.0784 695.89 84.2784C693.91 83.4884 691.42 83.0784 688.41 83.0784ZM698.12 47.8884H682.47V70.9084H697.67C701.75 70.9084 705.17 70.5584 707.95 69.8484C710.73 69.1484 712.85 67.9484 714.32 66.2484C715.79 64.5584 716.52 62.2184 716.52 59.2484C716.52 56.9284 715.93 54.8784 714.75 53.1084C713.57 51.3384 711.93 50.0184 709.84 49.1384C707.85 48.3084 703.95 47.8884 698.12 47.8884Z" fill="#0E94F2"/>
<path d="M798.67 109.417L794.67 98.9066H760.62L756.62 109.647C755.06 113.837 753.73 116.667 752.62 118.127C751.51 119.597 749.71 120.327 747.19 120.327C745.06 120.327 743.17 119.547 741.53 117.987C739.89 116.427 739.07 114.657 739.07 112.677C739.07 111.537 739.26 110.357 739.64 109.137C740.02 107.917 740.65 106.227 741.53 104.057L762.95 49.6666C763.56 48.1066 764.29 46.2266 765.15 44.0366C766.01 41.8466 766.92 40.0266 767.89 38.5766C768.86 37.1266 770.14 35.9566 771.72 35.0666C773.3 34.1766 775.25 33.7266 777.58 33.7266C779.94 33.7266 781.91 34.1766 783.49 35.0666C785.07 35.9666 786.35 37.1166 787.32 38.5266C788.29 39.9366 789.11 41.4466 789.78 43.0666C790.45 44.6866 791.29 46.8466 792.32 49.5466L814.2 103.587C815.91 107.697 816.77 110.687 816.77 112.557C816.77 114.497 815.96 116.277 814.34 117.897C812.72 119.517 810.77 120.327 808.48 120.327C807.15 120.327 806 120.087 805.05 119.617C804.1 119.137 803.3 118.497 802.65 117.677C802 116.857 801.31 115.597 800.57 113.907C799.84 112.207 799.21 110.717 798.67 109.417ZM765.08 86.1666H790.1L777.48 51.6066L765.08 86.1666Z" fill="#0E94F2"/>
</svg>
